<svg width="220" height="45" viewBox="0 0 220 45" fill="none" xmlns="http://www.w3.org/2000/svg">
<path d="M40.4802 31.4677H33.7346C32.3892 31.4677 31.069 31.8761 29.9562 32.6364L29.7551 32.7935L29.4847 33.0197L29.2836 33.1516C28.4223 33.9119 27.7747 34.8796 27.3913 35.9603H20.237C11.5424 35.9603 4.49501 28.9166 4.49501 20.2265C4.49501 11.5365 11.5487 4.49269 20.2433 4.49269C28.9378 4.49269 35.9852 11.5365 35.9852 20.2265V24.7192H29.2396C29.2396 17.2733 23.198 11.2349 15.7482 11.2349H11.2532V15.7275C11.2532 23.1735 17.2948 29.2119 24.7445 29.2119H40.4865V20.2202C40.4802 9.06077 31.4211 0 20.2433 0C9.06546 0 0 9.06077 0 20.2328C0 31.4048 9.06546 40.4656 20.2433 40.4656H27.3975C28.3468 43.1549 30.8867 44.952 33.7409 44.9583H40.4865V40.4656H44.9815V35.9729H40.4865V31.4802L40.4802 31.4677Z" fill="#145A4A"/>
<path d="M15.7422 15.7352C20.7087 15.7352 24.7385 19.7629 24.7385 24.7269C19.772 24.7269 15.7422 20.6992 15.7422 15.7352Z" fill="#8FAE4E"/>
<path d="M35.9847 40.4553H33.734C32.4893 40.4553 31.4834 39.4499 31.4834 38.2058C31.4834 36.9617 32.4893 35.9563 33.734 35.9563H35.9847V40.449V40.4553Z" fill="#8FAE4E"/>
<path d="M69.0182 24.1717H60.2729C60.3379 24.9506 60.5868 25.5563 61.0306 25.9674C61.4743 26.3785 62.0263 26.584 62.6649 26.584C63.6282 26.584 64.2992 26.173 64.678 25.3616H68.7909C68.5852 26.1946 68.1956 26.941 67.6544 27.6009C67.1025 28.2608 66.4098 28.78 65.5872 29.1586C64.7538 29.5373 63.8338 29.7212 62.8056 29.7212C61.5717 29.7212 60.4678 29.4615 59.5045 28.9315C58.5412 28.4014 57.7836 27.655 57.2424 26.6706C56.7012 25.6862 56.4307 24.5503 56.4307 23.2305C56.4307 21.9108 56.7012 20.7749 57.2316 19.8013C57.7619 18.8169 58.5196 18.0705 59.4828 17.5404C60.4461 17.0103 61.5501 16.7507 62.8056 16.7507C64.0611 16.7507 65.111 17.0103 66.0634 17.5188C67.0159 18.0272 67.7519 18.7628 68.293 19.7148C68.8234 20.6667 69.0939 21.7701 69.0939 23.0358C69.0939 23.3928 69.0723 23.7714 69.029 24.1609L69.0182 24.1717ZM65.1326 22.0298C65.1326 21.3699 64.9053 20.8398 64.4507 20.4504C63.9962 20.0609 63.4333 19.8662 62.7515 19.8662C62.0696 19.8662 61.5609 20.0501 61.1172 20.4287C60.6734 20.8074 60.392 21.3374 60.2946 22.0298H65.1326Z" fill="#145A4A"/>
<path d="M71.0855 19.8121C71.5725 18.8277 72.2436 18.0813 73.0878 17.5512C73.932 17.0211 74.8736 16.7615 75.9127 16.7615C76.7461 16.7615 77.5037 16.9346 78.1856 17.2808C78.8674 17.6269 79.4086 18.0921 79.7982 18.6871V12.8347H83.6622V29.5589H79.7982V27.7523C79.4411 28.3581 78.9215 28.8341 78.2505 29.2019C77.5795 29.5697 76.8002 29.7428 75.9127 29.7428C74.8736 29.7428 73.932 29.4723 73.0878 28.9423C72.2436 28.4122 71.5725 27.6441 71.0855 26.6597C70.5984 25.6753 70.3495 24.5286 70.3495 23.2413C70.3495 21.954 70.5984 20.8073 71.0855 19.8337V19.8121ZM78.9973 20.9588C78.467 20.3963 77.8067 20.1258 77.0383 20.1258C76.2698 20.1258 75.6204 20.3963 75.0793 20.948C74.5489 21.4997 74.2783 22.2569 74.2783 23.2197C74.2783 24.1825 74.5489 24.9505 75.0793 25.513C75.6096 26.0756 76.2698 26.3568 77.0383 26.3568C77.8067 26.3568 78.4561 26.0756 78.9973 25.5239C79.5277 24.9722 79.7982 24.2041 79.7982 23.2413C79.7982 22.2785 79.5277 21.5213 78.9973 20.9588Z" fill="#145A4A"/>
<path d="M98.2953 24.1717H89.55C89.615 24.9506 89.8639 25.5563 90.3077 25.9674C90.7514 26.3785 91.3034 26.584 91.942 26.584C92.9052 26.584 93.5763 26.173 93.9551 25.3616H98.068C97.8623 26.1946 97.4727 26.941 96.9315 27.6009C96.3795 28.2608 95.6868 28.78 94.8643 29.1586C94.0309 29.5373 93.1109 29.7212 92.0827 29.7212C90.8488 29.7212 89.7448 29.4615 88.7816 28.9315C87.8183 28.4014 87.0607 27.655 86.5195 26.6706C85.9783 25.6862 85.7077 24.5503 85.7077 23.2305C85.7077 21.9108 85.9783 20.7749 86.5087 19.8013C87.039 18.8169 87.7966 18.0705 88.7599 17.5404C89.7232 17.0103 90.8272 16.7507 92.0827 16.7507C93.3382 16.7507 94.388 17.0103 95.3405 17.5188C96.2929 18.0272 97.0289 18.7628 97.5701 19.7148C98.1004 20.6667 98.371 21.7701 98.371 23.0358C98.371 23.3928 98.3494 23.7714 98.3061 24.1609L98.2953 24.1717ZM94.4097 22.0298C94.4097 21.3699 94.1824 20.8398 93.7278 20.4504C93.2732 20.0609 92.7104 19.8662 92.0286 19.8662C91.3467 19.8662 90.838 20.0501 90.3942 20.4287C89.9505 20.8074 89.6691 21.3374 89.5717 22.0298H94.4097Z" fill="#145A4A"/>
<path d="M111.619 18.2436C112.496 19.1956 112.939 20.5153 112.939 22.1813V29.5481H109.097V22.7005C109.097 21.8567 108.881 21.1968 108.437 20.7317C108.004 20.2665 107.409 20.0285 106.673 20.0285C105.937 20.0285 105.341 20.2665 104.908 20.7317C104.475 21.1968 104.248 21.8567 104.248 22.7005V29.5481H100.384V16.9455H104.248V18.6222C104.638 18.0597 105.168 17.627 105.828 17.3025C106.489 16.9779 107.235 16.8157 108.069 16.8157C109.541 16.8157 110.721 17.2916 111.608 18.2544L111.619 18.2436Z" fill="#145A4A"/>
<path d="M115.916 15.0307C115.483 14.6305 115.266 14.1329 115.266 13.5487C115.266 12.9646 115.483 12.4453 115.916 12.0451C116.349 11.6448 116.901 11.4501 117.572 11.4501C118.243 11.4501 118.784 11.6448 119.206 12.0451C119.628 12.4453 119.845 12.9429 119.845 13.5487C119.845 14.1545 119.628 14.6305 119.206 15.0307C118.784 15.431 118.232 15.6257 117.572 15.6257C116.911 15.6257 116.338 15.431 115.916 15.0307ZM119.498 16.9455V29.5481H115.634V16.9455H119.498Z" fill="#145A4A"/>
<path d="M122.334 19.8121C122.864 18.8277 123.611 18.0813 124.574 17.5512C125.527 17.0211 126.631 16.7615 127.865 16.7615C129.445 16.7615 130.765 17.1726 131.837 18.0055C132.897 18.8385 133.601 20.0068 133.926 21.5105H129.813C129.466 20.5477 128.795 20.0609 127.8 20.0609C127.085 20.0609 126.523 20.3313 126.1 20.8831C125.678 21.4348 125.473 22.2245 125.473 23.2413C125.473 24.2582 125.689 25.0587 126.1 25.5996C126.523 26.1513 127.085 26.4217 127.8 26.4217C128.795 26.4217 129.466 25.9349 129.813 24.9722H133.926C133.59 26.4434 132.897 27.6117 131.826 28.4555C130.754 29.2992 129.434 29.7211 127.865 29.7211C126.631 29.7211 125.538 29.4615 124.574 28.9314C123.622 28.4014 122.875 27.655 122.334 26.6705C121.804 25.6861 121.533 24.5503 121.533 23.2305C121.533 21.9107 121.804 20.7749 122.334 19.8013V19.8121Z" fill="#145A4A"/>
<path d="M142.177 24.1454C142.234 24.929 142.484 25.5309 142.938 25.9398C143.393 26.3486 143.927 26.5644 144.574 26.5644C145.54 26.5644 146.211 26.1555 146.586 25.3492H150.699C150.483 26.1783 150.108 26.9164 149.563 27.5865C149.017 28.2452 148.324 28.7676 147.495 29.1423C146.665 29.5171 145.745 29.7102 144.722 29.7102C143.484 29.7102 142.393 29.449 141.427 28.9152C140.461 28.3928 139.711 27.6319 139.166 26.6552C138.62 25.6785 138.348 24.5315 138.348 23.2255C138.348 21.9195 138.62 20.7725 139.154 19.7958C139.688 18.8191 140.438 18.0696 141.404 17.5358C142.37 17.0134 143.472 16.7408 144.722 16.7408C145.972 16.7408 147.029 17.002 147.972 17.5131C148.915 18.0241 149.665 18.751 150.199 19.7049C150.733 20.6589 151.006 21.7605 151.006 23.0211C151.006 23.3845 150.983 23.7593 150.937 24.1454H142.177ZM147.029 21.999C147.029 21.3403 146.801 20.8065 146.347 20.4204C145.892 20.0343 145.336 19.8299 144.654 19.8299C143.972 19.8299 143.461 20.0229 143.018 20.3977C142.575 20.7725 142.302 21.3062 142.188 21.999H147.029Z" fill="#145A4A"/>
<path d="M164.22 18.2172C165.095 19.1712 165.538 20.4885 165.538 22.158V29.5171H161.698V22.6804C161.698 21.84 161.482 21.1813 161.039 20.7157C160.607 20.2501 160.016 20.0116 159.277 20.0116C158.539 20.0116 157.948 20.2501 157.516 20.7157C157.084 21.1813 156.857 21.84 156.857 22.6804V29.5171H152.994V16.9225H156.857V18.592C157.244 18.0355 157.778 17.5926 158.437 17.2746C159.096 16.9453 159.846 16.7863 160.675 16.7863C162.152 16.7863 163.323 17.2632 164.209 18.2172H164.22Z" fill="#145A4A"/>
<path d="M171.299 24.1454C171.356 24.929 171.606 25.5309 172.06 25.9398C172.515 26.3486 173.049 26.5644 173.697 26.5644C174.662 26.5644 175.333 26.1555 175.708 25.3492H179.821C179.605 26.1783 179.23 26.9164 178.685 27.5865C178.139 28.2452 177.446 28.7676 176.617 29.1423C175.787 29.5171 174.867 29.7102 173.844 29.7102C172.606 29.7102 171.515 29.449 170.549 28.9152C169.583 28.3928 168.833 27.6319 168.288 26.6552C167.743 25.6785 167.47 24.5315 167.47 23.2255C167.47 21.9195 167.743 20.7725 168.277 19.7958C168.811 18.8191 169.561 18.0696 170.526 17.5358C171.492 17.0134 172.594 16.7408 173.844 16.7408C175.094 16.7408 176.151 17.002 177.094 17.5131C178.037 18.0241 178.787 18.751 179.321 19.7049C179.855 20.6589 180.128 21.7605 180.128 23.0211C180.128 23.3845 180.105 23.7593 180.06 24.1454H171.299ZM176.151 21.999C176.151 21.3403 175.924 20.8065 175.469 20.4204C175.015 20.0343 174.458 19.8299 173.776 19.8299C173.094 19.8299 172.583 20.0229 172.14 20.3977C171.697 20.7725 171.424 21.3062 171.31 21.999H176.151Z" fill="#145A4A"/>
<path d="M187.684 17.3882C188.366 16.9907 189.116 16.7863 189.945 16.7863V20.8747H188.888C187.923 20.8747 187.207 21.0791 186.718 21.4993C186.241 21.9081 185.991 22.635 185.991 23.6798V29.5285H182.128V16.9339H185.991V19.0349C186.445 18.3421 187.002 17.797 187.684 17.3995V17.3882Z" fill="#145A4A"/>
<path d="M198.922 17.2859C199.592 17.6493 200.103 18.1149 200.467 18.7054V16.9224H204.33V29.4943C204.33 30.6527 204.103 31.6975 203.637 32.6401C203.183 33.5827 202.478 34.3323 201.535 34.8887C200.592 35.4452 199.421 35.7178 198.024 35.7178C196.16 35.7178 194.649 35.2749 193.49 34.4004C192.331 33.5146 191.672 32.3335 191.502 30.8231H195.32C195.445 31.3 195.729 31.6862 196.172 31.9587C196.626 32.2313 197.183 32.3789 197.842 32.3789C198.637 32.3789 199.274 32.1518 199.751 31.6862C200.228 31.2319 200.467 30.4937 200.467 29.483V27.7C200.092 28.2905 199.569 28.7675 198.91 29.1309C198.251 29.5057 197.467 29.6874 196.581 29.6874C195.547 29.6874 194.604 29.4148 193.763 28.881C192.922 28.3473 192.252 27.5864 191.763 26.5984C191.275 25.6103 191.025 24.4746 191.025 23.18C191.025 21.8853 191.275 20.7497 191.763 19.773C192.252 18.7963 192.922 18.0468 193.763 17.513C194.604 16.9906 195.547 16.718 196.581 16.718C197.467 16.718 198.251 16.8997 198.922 17.2631V17.2859ZM199.671 20.9427C199.137 20.3862 198.49 20.1137 197.717 20.1137C196.944 20.1137 196.297 20.3862 195.763 20.9427C195.229 21.4878 194.956 22.2487 194.956 23.2141C194.956 24.1794 195.229 24.9403 195.763 25.5081C196.297 26.0759 196.944 26.3599 197.717 26.3599C198.49 26.3599 199.137 26.0873 199.671 25.5195C200.206 24.963 200.478 24.2021 200.478 23.2368C200.478 22.2715 200.206 21.5106 199.671 20.9541V20.9427Z" fill="#145A4A"/>
<path d="M219.999 16.9224L212.102 35.4906H207.943L210.83 29.0855L205.705 16.9224H210.023L212.932 24.7926L215.818 16.9224H219.999Z" fill="#145A4A"/>
</svg>
