<svg width="76" height="77" viewBox="0 0 76 77" fill="none" xmlns="http://www.w3.org/2000/svg">
<path d="M67.5296 53.5161H56.2765C54.0321 53.5161 51.8297 54.2107 49.9734 55.5037L49.6378 55.7708L49.1868 56.1555L48.8512 56.3799C47.4144 57.673 46.3342 59.3186 45.6945 61.1566H33.7596C19.2552 61.1566 7.49863 49.1775 7.49863 34.3986C7.49863 19.6197 19.2657 7.64057 33.7701 7.64057C48.2744 7.64057 60.031 19.6197 60.031 34.3986V42.0392H48.7778C48.7778 29.3761 38.6992 19.1068 26.2714 19.1068H18.7728V26.7473C18.7728 39.4104 28.8514 49.6797 41.2792 49.6797H67.5401V34.3879C67.5296 15.4094 52.417 0 33.7701 0C15.1231 0 0 15.4094 0 34.4093C0 53.4092 15.1231 68.8186 33.7701 68.8186H45.705C47.2886 73.3922 51.5256 76.4485 56.2869 76.4591H67.5401V68.8186H75.0388V61.178H67.5401V53.5374L67.5296 53.5161Z" fill="#145A4A"/>
<path d="M26.2617 26.7598C34.5469 26.7598 41.2695 33.6096 41.2695 42.0516C32.9843 42.0516 26.2617 35.2018 26.2617 26.7598Z" fill="#8FAE4E"/>
<path d="M60.0306 68.807H56.276C54.1995 68.807 52.5215 67.0972 52.5215 64.9814C52.5215 62.8655 54.1995 61.1558 56.276 61.1558H60.0306V68.7963V68.807Z" fill="#8FAE4E"/>
</svg>
